<svg id="visual" viewBox="0 0 900 600" width="900" height="600" xmlns="http://www.w3.org/2000/svg" xmlns:xlink="http://www.w3.org/1999/xlink" version="1.1"><rect x="0" y="0" width="900" height="600" fill="#210014"></rect><defs><linearGradient id="grad1_0" x1="33.3%" y1="0%" x2="100%" y2="100%"><stop offset="20%" stop-color="#210014" stop-opacity="1"></stop><stop offset="80%" stop-color="#210014" stop-opacity="1"></stop></linearGradient></defs><defs><linearGradient id="grad2_0" x1="0%" y1="0%" x2="66.7%" y2="100%"><stop offset="20%" stop-color="#210014" stop-opacity="1"></stop><stop offset="80%" stop-color="#210014" stop-opacity="1"></stop></linearGradient></defs><g transform="translate(900, 0)"><path d="M0 405.6C-45.5 403 -91 400.4 -122.7 377.6C-154.4 354.7 -172.4 311.7 -210.4 289.6C-248.5 267.6 -306.6 266.5 -328.2 238.4C-349.7 210.3 -334.6 155.2 -341.4 110.9C-348.2 66.7 -376.9 33.3 -405.6 0L0 0Z" fill="#ee3cfa"></path></g><g transform="translate(0, 600)"><path d="M0 -405.6C36.7 -385.6 73.4 -365.6 115.9 -356.6C158.3 -347.7 206.5 -349.9 238.4 -328.2C270.3 -306.4 285.9 -260.6 307.4 -223.4C329 -186.1 356.4 -157.3 373.8 -121.4C391.1 -85.6 398.4 -42.8 405.6 0L0 0Z" fill="#ee3cfa"></path></g></svg>